# xmcd CD Database Entry
#
# Track frame offsets:
# 150
# 21020
# 37067
# 60390
# 75700
# 95627
# 120702
# 136525
# 152125
# 172702
# 185482
# 199027
# 210940
# 225575
# 245347
# 262930
#
# Disc length: 3706 seconds
#
# Revision: 1
# Processed by: cddbd v1.4b42PL1 Copyright (c) Steve Scherf et al.
# Submitted via: tcd 2.0b
#
DISCID=c20e7810
DTITLE=Long John Baldry - A Thrill's A Thrill - Disk #1
DYEAR=1900
DGENRE=
TTITLE0=Baldry's Out
TTITLE1=Stealer
TTITLE2=You've Lost That Loving Feeling
TTITLE3=Find You
TTITLE4=Come And Get Your Love
TTITLE5=A Thrill's A Thrill
TTITLE6=Savoir Faire
TTITLE7=Any Day Now
TTITLE8=Morning Dew
TTITLE9=You're Good With Your Love
TTITLE10=Run Johnny Run
TTITLE11=I Want You I Love You
TTITLE12=Love Is A Killer
TTITLE13=Darlin'
TTITLE14=River's Invitation
TTITLE15=Passing Glances
EXTD=\t
EXTT0=\t
EXTT1=
EXTT2=
EXTT3=
EXTT4=
EXTT5=
EXTT6=
EXTT7=
EXTT8=
EXTT9=
EXTT10=
EXTT11=
EXTT12=
EXTT13=
EXTT14=
EXTT15=
PLAYORDER=
